<svg xmlns="http://www.w3.org/2000/svg" viewBox="0 0 100 100" fill="none">
  <rect x="10" y="20" width="80" height="70" rx="8" fill="#0d6efd" opacity="0.1" stroke="#0d6efd" stroke-width="3"/>
  <rect x="10" y="20" width="80" height="20" rx="8" fill="#0d6efd"/>
  <rect x="10" y="32" width="80" height="8" fill="#0d6efd"/>
  <circle cx="30" cy="15" r="4" fill="#0d6efd"/>
  <circle cx="70" cy="15" r="4" fill="#0d6efd"/>
  <line x1="30" y1="15" x2="30" y2="25" stroke="#0d6efd" stroke-width="3"/>
  <line x1="70" y1="15" x2="70" y2="25" stroke="#0d6efd" stroke-width="3"/>
  <rect x="25" y="50" width="15" height="12" rx="2" fill="#0d6efd" opacity="0.3"/>
  <rect x="42" y="50" width="15" height="12" rx="2" fill="#0d6efd" opacity="0.3"/>
  <rect x="60" y="50" width="15" height="12" rx="2" fill="#0d6efd"/>
  <rect x="25" y="67" width="15" height="12" rx="2" fill="#0d6efd" opacity="0.3"/>
  <rect x="42" y="67" width="15" height="12" rx="2" fill="#0d6efd" opacity="0.3"/>
  <rect x="60" y="67" width="15" height="12" rx="2" fill="#0d6efd" opacity="0.3"/>
  <path d="M63 53 L67 58 L73 52" stroke="white" stroke-width="2" stroke-linecap="round" stroke-linejoin="round"/>
</svg>
