<svg xmlns="http://www.w3.org/2000/svg" viewBox="0 0 600 400" fill="none">
  <rect width="600" height="400" fill="#111111" rx="20"/>
  <rect x="50" y="50" width="500" height="300" fill="#1a1a1a" rx="16"/>
  <circle cx="300" cy="180" r="80" fill="none" stroke="#333333" stroke-width="2"/>
  <circle cx="300" cy="180" r="60" fill="none" stroke="#444444" stroke-width="1.5"/>
  <circle cx="300" cy="180" r="40" fill="#222222"/>
  <path d="M300 150 L300 210 M270 180 L330 180" stroke="white" stroke-width="3" stroke-linecap="round"/>
  <circle cx="300" cy="180" r="20" fill="none" stroke="white" stroke-width="2"/>
  <rect x="200" y="290" width="200" height="4" rx="2" fill="#333333"/>
  <rect x="230" y="300" width="140" height="4" rx="2" fill="#222222"/>
  <circle cx="150" cy="100" r="3" fill="#333333"/>
  <circle cx="450" cy="100" r="3" fill="#333333"/>
  <circle cx="150" cy="300" r="3" fill="#333333"/>
  <circle cx="450" cy="300" r="3" fill="#333333"/>
  <rect x="80" y="120" width="60" height="3" rx="1.5" fill="#222222"/>
  <rect x="460" y="120" width="60" height="3" rx="1.5" fill="#222222"/>
  <rect x="80" y="280" width="60" height="3" rx="1.5" fill="#222222"/>
  <rect x="460" y="280" width="60" height="3" rx="1.5" fill="#222222"/>
</svg>
